<svg width="168" height="30" viewBox="0 0 168 30" fill="none" xmlns="http://www.w3.org/2000/svg">
<rect width="168" height="30" fill="#234B63"/>
<g id="&#229;&#185;&#179;&#230;&#157;&#191;&#231;&#171;&#175;" clip-path="url(#clip0_0_1)">
<rect width="800" height="7030" transform="translate(-33 -20)" fill="white"/>
<g id="Main">
<g id="Navigation&#229;&#175;&#188;&#232;&#136;&#170;">
<g id="div">
<rect width="800" height="71" transform="translate(-33 -20)" fill="#FFFDF9"/>
<g id="div_2">
<rect width="800" height="70" transform="translate(-33 -20)" fill="#FFFDF9"/>
<g id="Component 2">
<g id="Group">
<path id="Vector" d="M49.8621 20.5258H48.0338C47.2769 20.5258 46.6639 19.9187 46.6639 19.1731V0.00396729H44.9209V20.5258V22.2486H46.6639H49.8621V20.5258Z" fill="#F45F00"/>
<path id="Vector_2" d="M62.7375 16.2468V10.2556H60.9945V12.0316C59.8245 10.852 58.1694 10.1544 56.3545 10.2662C53.2496 10.4579 50.7843 13.0435 50.7337 16.1536C50.6804 19.506 53.3935 22.2486 56.7356 22.2486C58.3986 22.2486 59.9071 21.5696 60.9945 20.4726V22.2486H62.7375V16.2574C62.7375 16.2574 62.7375 16.2548 62.7375 16.2521C62.7375 16.2494 62.7375 16.2494 62.7375 16.2468ZM56.7356 20.5072C54.2783 20.5072 52.3008 18.4196 52.49 15.9246C52.6473 13.845 54.3263 12.1648 56.4104 12.0077C58.905 11.8213 60.9945 13.7944 60.9971 16.2468V16.2521C60.9971 18.598 59.0862 20.5045 56.7382 20.5045L56.7356 20.5072Z" fill="#F45F00"/>
<path id="Vector_3" d="M76.2443 16.2468V10.2556H74.5013V12.0316C73.3313 10.852 71.6763 10.1544 69.8613 10.2662C66.7564 10.4579 64.2912 13.0435 64.2405 16.1536C64.1872 19.506 66.9003 22.2486 70.2424 22.2486C71.9055 22.2486 73.4139 21.5696 74.5013 20.4726V22.2486H76.2443V16.2574C76.2443 16.2574 76.2443 16.2548 76.2443 16.2521C76.2443 16.2494 76.2443 16.2494 76.2443 16.2468ZM70.2424 20.5072C67.7852 20.5072 65.8076 18.4196 65.9969 15.9246C66.1541 13.845 67.8331 12.1648 69.9146 12.0077C72.4092 11.8213 74.4987 13.7944 74.5013 16.2468V16.2521C74.5013 18.598 72.5904 20.5045 70.2424 20.5045V20.5072Z" fill="#F45F00"/>
<path id="Vector_4" d="M85.138 20.5258H83.3097C82.5528 20.5258 81.9398 19.9187 81.9398 19.1731V0.00396729H80.1968V20.5258V22.2486H81.9398H85.138V20.5258Z" fill="#F45F00"/>
<path id="Vector_5" d="M98.0134 16.2468V10.2556H96.2704V12.0316C95.1004 10.852 93.4453 10.1544 91.6303 10.2662C88.5255 10.4579 86.0602 13.0435 86.0096 16.1536C85.9563 19.506 88.6694 22.2486 92.0115 22.2486C93.6745 22.2486 95.183 21.5696 96.2704 20.4726V22.2486H98.0134V16.2574C98.0134 16.2574 98.0134 16.2548 98.0134 16.2521C98.0134 16.2494 98.0134 16.2494 98.0134 16.2468ZM92.0115 20.5072C89.5542 20.5072 87.5767 18.4196 87.7659 15.9246C87.9231 13.845 89.6022 12.1648 91.6863 12.0077C94.1809 11.8213 96.2704 13.7944 96.273 16.2468V16.2521C96.273 18.598 94.3621 20.5045 92.0141 20.5045L92.0115 20.5072Z" fill="#F45F00"/>
<path id="Vector_6" d="M111.52 16.2468V10.2556H109.777V12.0316C108.607 10.852 106.952 10.1544 105.137 10.2662C102.032 10.4579 99.567 13.0435 99.5164 16.1536C99.4631 19.506 102.176 22.2486 105.518 22.2486C107.181 22.2486 108.69 21.5696 109.777 20.4726V22.2486H111.52V16.2574C111.52 16.2574 111.52 16.2548 111.52 16.2521C111.52 16.2494 111.52 16.2494 111.52 16.2468ZM105.518 20.5072C103.061 20.5072 101.084 18.4196 101.273 15.9246C101.43 13.845 103.109 12.1648 105.193 12.0077C107.688 11.8213 109.777 13.7944 109.78 16.2468V16.2521C109.78 18.598 107.869 20.5045 105.521 20.5045L105.518 20.5072Z" fill="#F45F00"/>
<path id="Vector_7" d="M117.216 16.2521C117.216 18.7072 119.305 20.6829 121.802 20.4939C123.884 20.3368 125.566 18.6592 125.723 16.577C125.909 14.0846 123.932 11.9944 121.477 11.9944C118.074 11.9944 115.321 9.14787 115.483 5.71025C115.627 2.6401 118.119 0.15042 121.192 0.0066312C124.63 -0.153134 127.482 2.59483 127.482 5.99783H125.739C125.739 3.54277 123.649 1.56701 121.152 1.75606C119.071 1.91316 117.389 3.5907 117.232 5.67297C117.045 8.16531 119.023 10.2556 121.477 10.2556C124.881 10.2556 127.634 13.1021 127.471 16.5397C127.327 19.6098 124.835 22.0995 121.762 22.2433C118.324 22.4031 115.473 19.6551 115.473 16.2521H117.216Z" fill="#F45F00"/>
<path id="Vector_8" d="M134.982 10.2556C131.637 10.2556 128.929 12.9902 128.98 16.3426C129.028 19.5246 131.602 22.1421 134.784 22.246C136.519 22.3019 138.094 21.6202 139.225 20.4939L137.991 19.261C137.22 20.0306 136.154 20.5099 134.982 20.5099C132.634 20.5099 130.723 18.6007 130.723 16.2548H139.241H140.984C140.984 12.9423 138.297 10.2582 134.982 10.2582V10.2556ZM134.982 11.997C136.709 11.997 138.198 13.0302 138.867 14.5107H131.098C131.765 13.0302 133.255 11.997 134.984 11.997H134.982Z" fill="#F45F00"/>
<path id="Vector_9" d="M154.493 16.2255C154.48 12.9263 151.799 10.2556 148.491 10.2556C146.825 10.2556 145.32 10.9346 144.232 12.029V10.2556H142.489V22.2486H144.232V16.2255C144.246 13.8902 146.151 11.997 148.491 11.997C150.831 11.997 152.734 13.8929 152.75 16.2255V22.2486H154.493V16.2255Z" fill="#F45F00"/>
<g id="Group_2">
<path id="Vector_10" d="M168 11.0171H161.998C158.589 11.0171 155.844 13.8556 156.002 17.2959C156.143 20.3687 158.637 22.8611 161.713 23.0022C165.156 23.162 167.997 20.4167 167.997 17.011C167.997 15.3468 167.318 13.8423 166.225 12.7559H167.997V11.0145L168 11.0171ZM166.257 17.011V17.0163C166.257 19.4687 164.165 21.4445 161.67 21.2554C159.589 21.0983 157.907 19.4208 157.753 17.3385C157.566 14.8462 159.544 12.7559 161.998 12.7559C164.346 12.7559 166.257 14.6624 166.257 17.0083V17.011Z" fill="#F45F00"/>
<path id="Vector_11" d="M162.022 28.2585C159.682 28.2718 157.766 26.3892 157.739 24.054L155.996 24.0646C156.028 27.3638 158.725 30.0185 162.033 29.9999C165.337 29.9813 168.005 27.2945 168 23.9954L166.257 24.006C166.257 26.3413 164.362 28.2451 162.022 28.2585Z" fill="#F45F00"/>
</g>
</g>
<path id="Vector_12" d="M30.276 4.80226C30.276 4.46675 30.1748 4.14456 29.9829 3.84367C30.1748 3.54278 30.276 3.22058 30.276 2.88508C30.276 2.15548 29.799 1.47914 28.9328 0.978543C28.0986 0.499247 26.9952 0.232971 25.8252 0.232971C24.6552 0.232971 23.5519 0.496584 22.7177 0.978543L1.34323 13.3098C0.477061 13.8104 0 14.4867 0 15.2163C0 15.5518 0.101275 15.874 0.293166 16.1749C0.101275 16.4758 0 16.798 0 17.1335C0 17.6953 0.295831 18.2412 0.83952 18.6885C0.298496 19.1359 0 19.6817 0 20.2436C0 20.5791 0.101275 20.9013 0.293166 21.2022C0.101275 21.5031 0 21.8253 0 22.1608C0 22.8904 0.477061 23.5667 1.34323 24.0673C2.17742 24.5466 3.28079 24.8129 4.45079 24.8129C5.62079 24.8129 6.72416 24.5492 7.55835 24.0673L28.9328 11.7387C29.799 11.2381 30.276 10.5618 30.276 9.8322C30.276 9.4967 30.1748 9.1745 29.9829 8.87361C30.1748 8.57272 30.276 8.25053 30.276 7.91502C30.276 7.35318 29.9802 6.80731 29.4365 6.35997C29.9775 5.91263 30.276 5.36676 30.276 4.80492V4.80226ZM1.54045 13.6506L22.9149 1.31938C23.6771 0.880021 24.7379 0.627059 25.8252 0.627059C26.9126 0.627059 27.9627 0.872032 28.7356 1.31938C29.4765 1.74542 29.8843 2.30193 29.8843 2.88508C29.8843 3.09543 29.8283 3.30579 29.7217 3.50816C29.5138 3.28449 29.25 3.07946 28.9328 2.89573C28.0986 2.41643 26.9952 2.15015 25.8252 2.15015C24.6552 2.15015 23.5519 2.41377 22.7177 2.89573L1.34323 15.2243C1.02608 15.408 0.762231 15.6157 0.551685 15.8394C0.445079 15.637 0.391776 15.4293 0.391776 15.2163C0.391776 14.6411 0.810204 14.0713 1.54045 13.6506ZM1.53512 18.6805C1.53512 18.6805 1.53779 18.6805 1.54045 18.6779L3.14487 17.7512C3.5633 17.8258 4.00305 17.8657 4.45079 17.8657C4.86122 17.8657 5.26366 17.8338 5.64744 17.7699L3.07291 19.2557C2.50523 19.1412 1.97754 18.9521 1.53246 18.6939C1.53246 18.6912 1.53246 18.6859 1.53246 18.6832L1.53512 18.6805ZM22.7203 7.92301L7.36113 16.782C6.5989 17.2213 5.53817 17.4743 4.45079 17.4743C4.19494 17.4743 3.94175 17.461 3.69389 17.4344L22.9149 6.34666C23.0082 6.2934 23.1095 6.24015 23.2107 6.19222C24.1888 5.7289 25.4281 5.56913 26.5821 5.69428L22.7177 7.92301H22.7203ZM22.9149 8.26384C23.6771 7.82449 24.7379 7.57152 25.8252 7.57152C26.0811 7.57152 26.3343 7.58484 26.5821 7.61146L7.36113 18.6965C7.26785 18.7498 7.16657 18.803 7.0653 18.851C6.08719 19.3143 4.8479 19.474 3.69389 19.3489L7.55835 17.1202L22.9149 8.26118V8.26384ZM3.15286 19.6631C3.57662 19.7377 4.01904 19.7776 4.46145 19.7776C5.43956 19.7776 6.423 19.5912 7.23586 19.2051C7.3478 19.1518 7.45707 19.0933 7.56101 19.0347L27.2031 7.70466C27.7735 7.82182 28.2985 8.00822 28.7382 8.26384C29.0527 8.44491 29.3059 8.64994 29.4951 8.86829C29.3059 9.09196 29.0501 9.29965 28.7382 9.47806L7.36113 21.8093C6.5989 22.2486 5.53817 22.5016 4.45079 22.5016C3.36341 22.5016 2.31334 22.2566 1.54045 21.8093C1.22597 21.6282 0.972777 21.4232 0.783552 21.2048C0.972777 20.9812 1.22863 20.7735 1.54045 20.5951L3.15286 19.6658V19.6631ZM27.1312 7.29193C26.7127 7.21738 26.273 7.17744 25.8252 7.17744C25.4148 7.17744 25.0124 7.20939 24.6286 7.27329L27.2031 5.78748C27.7735 5.90464 28.3065 6.09369 28.7516 6.35464C28.7462 6.35731 28.7382 6.35997 28.7329 6.36263L27.1285 7.28927L27.1312 7.29193ZM27.1258 5.38008C25.7639 5.13777 24.2235 5.27889 23.0428 5.83807C22.9309 5.89133 22.8216 5.94724 22.7177 6.00849L3.07558 17.3385C2.50523 17.2213 1.9802 17.035 1.54045 16.7793C1.22597 16.5983 0.972777 16.3932 0.783552 16.1749C0.972777 15.9512 1.22863 15.7435 1.54045 15.5651L22.9149 3.23656C23.6771 2.7972 24.7379 2.54424 25.8252 2.54424C26.9126 2.54424 27.9627 2.78922 28.7356 3.23656C29.0501 3.41763 29.3033 3.62266 29.4925 3.841C29.3033 4.06468 29.0474 4.27237 28.7356 4.45078L27.1258 5.38008ZM0.391776 17.1308C0.391776 16.9205 0.447744 16.7101 0.55435 16.5077C0.762231 16.7314 1.02608 16.9364 1.34323 17.1202C1.70836 17.3305 2.12678 17.5009 2.57986 17.6234L1.34323 18.337C1.28193 18.3717 1.2233 18.4089 1.16467 18.4462C0.663621 18.0601 0.391776 17.5968 0.391776 17.1308ZM1.16733 18.9255C1.5751 19.1891 2.06016 19.3942 2.58519 19.5379L1.3459 20.2542C1.02875 20.438 0.764896 20.6457 0.55435 20.8693C0.447744 20.667 0.394441 20.4593 0.394441 20.2462C0.394441 19.7776 0.668951 19.3143 1.16733 18.9282V18.9255ZM28.7356 11.3952L7.36113 23.7238C6.5989 24.1632 5.53817 24.4161 4.45079 24.4161C3.36341 24.4161 2.31334 24.1711 1.54045 23.7238C0.799543 23.2978 0.391776 22.7412 0.391776 22.1581C0.391776 21.9477 0.447744 21.7374 0.55435 21.535C0.762231 21.7587 1.02608 21.9637 1.34323 22.1474C2.17742 22.6267 3.28079 22.893 4.45079 22.893C5.62079 22.893 6.72416 22.6294 7.55835 22.1474L28.9328 9.81889C29.25 9.63516 29.5138 9.42746 29.7243 9.20379C29.831 9.40616 29.8843 9.61386 29.8843 9.82688C29.8843 10.402 29.4658 10.9719 28.7356 11.3926V11.3952ZM29.8843 7.91502C29.8843 8.12538 29.8283 8.33573 29.7217 8.5381C29.5138 8.31443 29.25 8.1094 28.9328 7.92567C28.5677 7.71531 28.1492 7.5449 27.6962 7.42241L28.9328 6.70879C28.9941 6.67418 29.0527 6.6369 29.1114 6.59962C29.6124 6.98572 29.8843 7.44904 29.8843 7.91502ZM29.1114 6.11766C28.7036 5.85405 28.2185 5.64901 27.6935 5.50789L28.9328 4.79161C29.25 4.60788 29.5138 4.40018 29.7243 4.17651C29.831 4.37888 29.8843 4.58658 29.8843 4.7996C29.8843 5.26824 29.6097 5.73156 29.1114 6.115V6.11766Z" fill="#F45F00"/>
</g>
</g>
</g>
</g>
</g>
</g>
<defs>
<clipPath id="clip0_0_1">
<rect width="800" height="7030" fill="white" transform="translate(-33 -20)"/>
</clipPath>
</defs>
</svg>
